<svg xmlns="http://www.w3.org/2000/svg" viewBox="0 0 279.18 184.46"><defs><style>.cls-1{fill:#006fe6;}</style></defs><title>Logo Blue</title><g id="Layer_2" data-name="Layer 2"><g id="Layer_1-2" data-name="Layer 1"><path class="cls-1" d="M96.3,60.48V28.7a8.22,8.22,0,0,0-8.22-8.23H56.29a8.23,8.23,0,0,0-8.23,8.23V60.31a8.23,8.23,0,0,1-8.22,8.23H8.23A8.22,8.22,0,0,0,0,76.76v31.79a8.22,8.22,0,0,0,8.23,8.22H39.84A8.23,8.23,0,0,1,48.06,125v31.2a8.23,8.23,0,0,0,8.23,8.22H88.08a8.22,8.22,0,0,0,8.22-8.22V124.41a8.22,8.22,0,0,0-8.22-8.22H56.46A8.23,8.23,0,0,1,48.24,108v-31a8.22,8.22,0,0,1,8.22-8.22H88.08A8.22,8.22,0,0,0,96.3,60.48Z"/><path class="cls-1" d="M182.88,60.48V28.7a8.22,8.22,0,0,1,8.22-8.23h31.79a8.22,8.22,0,0,1,8.22,8.23V60.31a8.24,8.24,0,0,0,8.23,8.23H271a8.23,8.23,0,0,1,8.23,8.22v31.79a8.23,8.23,0,0,1-8.23,8.22H239.34a8.24,8.24,0,0,0-8.23,8.23v31.2a8.22,8.22,0,0,1-8.22,8.22H191.1a8.22,8.22,0,0,1-8.22-8.22V124.41a8.22,8.22,0,0,1,8.22-8.22h31.61a8.23,8.23,0,0,0,8.23-8.23v-31a8.22,8.22,0,0,0-8.23-8.22H191.1A8.22,8.22,0,0,1,182.88,60.48Z"/><rect class="cls-1" x="122.59" y="-0.93" width="34" height="186.32" rx="7.12" transform="translate(-21.05 45.48) rotate(-17.23)"/></g></g></svg>